# Blender 4.0.2
# www.blender.org
mtllib Tree03.mtl
o Trunk.002
v 0.000000 -0.056599 -0.383134
v -0.000000 4.248407 -0.094515
v 0.146619 -0.056599 -0.353970
v 0.036169 4.248407 -0.087320
v 0.270917 -0.056599 -0.270917
v 0.066832 4.248407 -0.066832
v 0.353970 -0.056599 -0.146619
v 0.087320 4.248407 -0.036169
v 0.383134 -0.056599 -0.000000
v 0.094515 4.248407 -0.000000
v 0.353970 -0.056599 0.146619
v 0.087320 4.248407 0.036169
v 0.270917 -0.056599 0.270917
v 0.066832 4.248407 0.066832
v 0.146619 -0.056599 0.353970
v 0.036169 4.248407 0.087320
v 0.000000 -0.056599 0.383134
v -0.000000 4.248407 0.094515
v -0.146619 -0.056599 0.353970
v -0.036169 4.248407 0.087320
v -0.270917 -0.056599 0.270917
v -0.066832 4.248407 0.066832
v -0.353970 -0.056599 0.146619
v -0.087320 4.248407 0.036169
v -0.383134 -0.056599 -0.000000
v -0.094515 4.248407 -0.000000
v -0.353970 -0.056599 -0.146619
v -0.087320 4.248407 -0.036169
v -0.270917 -0.056599 -0.270917
v -0.066832 4.248407 -0.066832
v -0.146619 -0.056599 -0.353970
v -0.036169 4.248407 -0.087320
v 0.001057 1.506651 -0.238108
v 0.092010 1.506651 -0.220016
v 0.169115 1.506651 -0.168496
v 0.220636 1.506651 -0.091390
v 0.238727 1.506651 -0.000438
v 0.220636 1.506651 0.090514
v 0.169115 1.506651 0.167620
v 0.092010 1.506651 0.219140
v -0.002129 2.027531 0.184128
v -0.080252 2.201608 0.193370
v -0.172082 2.027531 0.172082
v -0.224836 2.027531 0.093130
v -0.243360 2.027531 -0.000000
v -0.224836 2.027531 -0.093130
v -0.131704 2.027531 -0.128692
v -0.089895 1.506651 -0.220016
v -0.002138 2.788376 -0.515913
v 0.196257 2.788376 -0.476450
v 0.364449 2.788376 -0.364068
v 0.476831 2.788376 -0.195877
v 0.516294 2.788376 0.002519
v 0.476831 2.788376 0.200914
v 0.364449 2.788376 0.369106
v 0.196257 2.788376 0.481488
v -0.002138 2.788376 0.520951
v -0.200534 2.788376 0.481488
v -0.368725 2.788376 0.369106
v -0.481107 2.788376 0.200914
v -0.520570 2.788376 0.002519
v -0.481107 2.788376 -0.195877
v -0.368725 2.788376 -0.364068
v -0.200534 2.788376 -0.476450
v -0.000000 4.686493 -0.000000
vn 0.3817 0.0725 -0.9214
vn 0.7053 0.0725 -0.7052
vn 0.7041 0.0920 -0.7041
vn 0.3810 0.0921 -0.9200
vn 0.9215 0.0725 -0.3817
vn 0.9200 0.0919 -0.3811
vn 0.9974 0.0725 -0.0000
vn 0.9958 0.0920 -0.0000
vn 0.9215 0.0725 0.3816
vn 0.9199 0.0921 0.3811
vn 0.7053 0.0726 0.7052
vn 0.7040 0.0924 0.7042
vn 0.3666 0.0822 0.9268
vn 0.3724 0.0935 0.9233
vn -0.0130 0.0620 0.9980
vn 0.0765 0.0881 0.9932
vn -0.1784 0.0584 0.9822
vn -0.2590 0.0789 0.9626
vn -0.6676 0.0692 0.7413
vn -0.6737 0.0701 0.7357
vn -0.9218 0.0669 0.3818
vn -0.9978 0.0669 -0.0000
vn -0.8429 0.0689 -0.5336
vn -0.8679 0.0755 -0.4910
vn -0.6573 0.0550 -0.7516
vn -0.6204 0.0853 -0.7796
vn -0.3961 0.0822 -0.9145
vn -0.3896 0.0935 -0.9162
vn 0.0001 0.0726 -0.9974
vn -0.0001 0.0924 -0.9957
vn -0.0001 0.0523 -0.9986
vn 0.3821 0.0524 -0.9226
vn -0.4871 0.0501 -0.8719
vn -0.6243 0.0456 -0.7799
vn -0.8123 0.0612 -0.5801
vn -0.6391 0.0651 0.7664
vn -0.1601 0.0536 0.9856
vn 0.0246 0.0445 0.9987
vn 0.2721 0.0501 0.9610
vn 0.7061 0.0523 0.7062
vn 0.9226 0.0524 0.3822
vn 0.9986 0.0525 -0.0000
vn 0.9226 0.0526 -0.3822
vn 0.7061 0.0525 -0.7061
vn 0.0017 1.0000 -0.0020
vn 0.6368 -0.4347 -0.6368
vn 0.3446 -0.4347 -0.8321
vn 0.8321 -0.4346 -0.3445
vn 0.9007 -0.4345 0.0002
vn 0.8322 -0.4342 0.3449
vn 0.6369 -0.4339 0.6372
vn 0.3446 -0.4336 0.8326
vn -0.0001 -0.4334 0.9012
vn -0.3450 -0.4333 0.8326
vn -0.6373 -0.4332 0.6373
vn -0.8326 -0.4333 0.3450
vn -0.9012 -0.4335 0.0002
vn -0.8325 -0.4337 -0.3446
vn -0.6372 -0.4340 -0.6369
vn -0.3449 -0.4343 -0.8321
vn -0.0001 -0.4345 -0.9006
vt 0.937500 0.750000
vt 0.875000 0.750000
vt 0.875000 0.500000
vt 0.937500 0.500000
vt 0.812500 0.750000
vt 0.812500 0.500000
vt 0.750000 0.750000
vt 0.750000 0.500000
vt 0.687500 0.750000
vt 0.687500 0.500000
vt 0.625000 0.750000
vt 0.625000 0.500000
vt 0.562500 0.750000
vt 0.562500 0.500000
vt 0.500000 0.750000
vt 0.500000 0.500000
vt 0.437500 0.750000
vt 0.437500 0.500000
vt 0.375000 0.750000
vt 0.375000 0.500000
vt 0.312500 0.750000
vt 0.312500 0.500000
vt 0.250000 0.750000
vt 0.250000 0.500000
vt 0.187500 0.750000
vt 0.187500 0.500000
vt 0.125000 0.750000
vt 0.125000 0.500000
vt 0.062500 0.750000
vt 0.062500 0.500000
vt 0.000000 0.750000
vt 0.000000 0.500000
vt 1.000000 0.750000
vt 1.000000 0.500000
vt 1.000000 1.000000
vt 0.937500 1.000000
vt 0.062500 1.000000
vt 0.000000 1.000000
vt 0.125000 1.000000
vt 0.187500 1.000000
vt 0.250000 1.000000
vt 0.312500 1.000000
vt 0.375000 1.000000
vt 0.437500 1.000000
vt 0.500000 1.000000
vt 0.562500 1.000000
vt 0.625000 1.000000
vt 0.687500 1.000000
vt 0.750000 1.000000
vt 0.812500 1.000000
vt 0.875000 1.000000
vt 0.250000 0.250000
vt 0.419706 0.419706
vt 0.341844 0.471731
vt 0.471731 0.341844
vt 0.490000 0.250000
vt 0.471731 0.158156
vt 0.419706 0.080294
vt 0.341844 0.028269
vt 0.250000 0.010000
vt 0.158156 0.028269
vt 0.080294 0.080294
vt 0.028269 0.158156
vt 0.010000 0.250000
vt 0.028269 0.341844
vt 0.080294 0.419706
vt 0.158156 0.471731
vt 0.250000 0.490000
vt 0.750000 0.490000
vt 0.750000 0.010000
vt 0.658156 0.028269
vt 0.658156 0.471731
vt 0.841844 0.471731
vt 0.841844 0.028269
vt 0.580294 0.080294
vt 0.580294 0.419706
vt 0.528269 0.158156
vt 0.528269 0.341844
vt 0.510000 0.250000
vt 0.919706 0.419706
vt 0.919706 0.080294
vt 0.971731 0.341844
vt 0.971731 0.158156
vt 0.990000 0.250000
s 1
f 34/1/1 35/2/2 5/3/3 3/4/4
f 35/2/2 36/5/5 7/6/6 5/3/3
f 36/5/5 37/7/7 9/8/8 7/6/6
f 37/7/7 38/9/9 11/10/10 9/8/8
f 38/9/9 39/11/11 13/12/12 11/10/10
f 39/11/11 40/13/13 15/14/14 13/12/12
f 40/13/13 41/15/15 17/16/16 15/14/14
f 41/15/15 42/17/17 19/18/18 17/16/16
f 42/17/17 43/19/19 21/20/20 19/18/18
f 43/19/19 44/21/21 23/22/21 21/20/20
f 44/21/21 45/23/22 25/24/22 23/22/21
f 45/23/22 46/25/23 27/26/24 25/24/22
f 46/25/23 47/27/25 29/28/26 27/26/24
f 47/27/25 48/29/27 31/30/28 29/28/26
f 48/29/27 33/31/29 1/32/30 31/30/28
f 33/33/29 34/1/1 3/4/4 1/34/30
f 2/35/31 4/36/32 34/1/1 33/33/29
f 32/37/33 2/38/31 33/31/29 48/29/27
f 30/39/34 32/37/33 48/29/27 47/27/25
f 28/40/35 30/39/34 47/27/25 46/25/23
f 26/41/22 28/40/35 46/25/23 45/23/22
f 24/42/21 26/41/22 45/23/22 44/21/21
f 22/43/36 24/42/21 44/21/21 43/19/19
f 20/44/37 22/43/36 43/19/19 42/17/17
f 18/45/38 20/44/37 42/17/17 41/15/15
f 16/46/39 18/45/38 41/15/15 40/13/13
f 14/47/40 16/46/39 40/13/13 39/11/11
f 12/48/41 14/47/40 39/11/11 38/9/9
f 10/49/42 12/48/41 38/9/9 37/7/7
f 8/50/43 10/49/42 37/7/7 36/5/5
f 6/51/44 8/50/43 36/5/5 35/2/2
f 4/36/32 6/51/44 35/2/2 34/1/1
f 65/52/45 51/53/46 50/54/47
f 65/52/45 52/55/48 51/53/46
f 65/52/45 53/56/49 52/55/48
f 65/52/45 54/57/50 53/56/49
f 65/52/45 55/58/51 54/57/50
f 65/52/45 56/59/52 55/58/51
f 65/52/45 57/60/53 56/59/52
f 65/52/45 58/61/54 57/60/53
f 65/52/45 59/62/55 58/61/54
f 65/52/45 60/63/56 59/62/55
f 65/52/45 61/64/57 60/63/56
f 65/52/45 62/65/58 61/64/57
f 65/52/45 63/66/59 62/65/58
f 65/52/45 64/67/60 63/66/59
f 65/52/45 49/68/61 64/67/60
f 65/52/45 50/54/47 49/68/61
f 49/69/61 57/70/53 58/71/54 64/72/60
f 57/70/53 49/69/61 50/73/47 56/74/52
f 64/72/60 58/71/54 59/75/55 63/76/59
f 63/76/59 59/75/55 60/77/56 62/78/58
f 62/78/58 60/77/56 61/79/57
f 56/74/52 50/73/47 51/80/46 55/81/51
f 55/81/51 51/80/46 52/82/48 54/83/50
f 54/83/50 52/82/48 53/84/49
o Leaf01.002
v 0.000000 1.565630 -0.721397
v 0.276067 1.565630 -0.666484
v 0.510104 1.565630 -0.510104
v 0.666484 1.565630 -0.276067
v 0.721397 1.565630 0.000000
v 0.666484 1.565630 0.276067
v 0.510104 1.565630 0.510104
v 0.276067 1.565630 0.666484
v 0.000000 1.565630 0.721397
v -0.276067 1.565630 0.666484
v -0.510104 1.565630 0.510104
v -0.666484 1.565630 0.276067
v -0.721397 1.565630 0.000000
v -0.666484 1.565630 -0.276067
v -0.510104 1.565630 -0.510104
v -0.276067 1.565630 -0.666484
v -0.000000 4.036393 0.000000
vn -0.0000 1.0000 -0.0000
vn 0.6398 -0.4259 -0.6398
vn 0.3462 -0.4259 -0.8359
vn 0.8359 -0.4259 -0.3462
vn 0.9048 -0.4259 -0.0000
vn 0.8359 -0.4259 0.3462
vn 0.6398 -0.4259 0.6398
vn 0.3462 -0.4259 0.8359
vn -0.0000 -0.4259 0.9048
vn -0.3462 -0.4259 0.8359
vn -0.6398 -0.4259 0.6398
vn -0.8359 -0.4259 0.3462
vn -0.9048 -0.4259 -0.0000
vn -0.8359 -0.4259 -0.3462
vn -0.6398 -0.4259 -0.6398
vn -0.3462 -0.4259 -0.8359
vn -0.0000 -0.4259 -0.9048
vt 0.250000 0.250000
vt 0.419706 0.419706
vt 0.341844 0.471731
vt 0.471731 0.341844
vt 0.490000 0.250000
vt 0.471731 0.158156
vt 0.419706 0.080294
vt 0.341844 0.028269
vt 0.250000 0.010000
vt 0.158156 0.028269
vt 0.080294 0.080294
vt 0.028269 0.158156
vt 0.010000 0.250000
vt 0.028269 0.341844
vt 0.080294 0.419706
vt 0.158156 0.471731
vt 0.250000 0.490000
vt 0.750000 0.490000
vt 0.750000 0.010000
vt 0.658156 0.028269
vt 0.658156 0.471731
vt 0.841844 0.471731
vt 0.841844 0.028269
vt 0.580294 0.080294
vt 0.580294 0.419706
vt 0.528269 0.158156
vt 0.528269 0.341844
vt 0.510000 0.250000
vt 0.919706 0.419706
vt 0.919706 0.080294
vt 0.971731 0.341844
vt 0.971731 0.158156
vt 0.990000 0.250000
s 1
f 82/85/62 68/86/63 67/87/64
f 82/85/62 69/88/65 68/86/63
f 82/85/62 70/89/66 69/88/65
f 82/85/62 71/90/67 70/89/66
f 82/85/62 72/91/68 71/90/67
f 82/85/62 73/92/69 72/91/68
f 82/85/62 74/93/70 73/92/69
f 82/85/62 75/94/71 74/93/70
f 82/85/62 76/95/72 75/94/71
f 82/85/62 77/96/73 76/95/72
f 82/85/62 78/97/74 77/96/73
f 82/85/62 79/98/75 78/97/74
f 82/85/62 80/99/76 79/98/75
f 82/85/62 81/100/77 80/99/76
f 82/85/62 66/101/78 81/100/77
f 82/85/62 67/87/64 66/101/78
f 66/102/78 74/103/70 75/104/71 81/105/77
f 74/103/70 66/102/78 67/106/64 73/107/69
f 81/105/77 75/104/71 76/108/72 80/109/76
f 80/109/76 76/108/72 77/110/73 79/111/75
f 79/111/75 77/110/73 78/112/74
f 73/107/69 67/106/64 68/113/63 72/114/68
f 72/114/68 68/113/63 69/115/65 71/116/67
f 71/116/67 69/115/65 70/117/66
o Leaf02.002
v -0.000000 0.429542 -0.904673
v 0.346203 0.429542 -0.835809
v 0.639700 0.429542 -0.639700
v 0.835809 0.429542 -0.346203
v 0.904673 0.429542 0.000000
v 0.835809 0.429542 0.346203
v 0.639700 0.429542 0.639700
v 0.346203 0.429542 0.835809
v -0.000000 0.429542 0.904673
v -0.346203 0.429542 0.835809
v -0.639700 0.429542 0.639700
v -0.835809 0.429542 0.346203
v -0.904673 0.429542 0.000000
v -0.835809 0.429542 -0.346203
v -0.639700 0.429542 -0.639700
v -0.346203 0.429542 -0.835809
v -0.000000 3.408840 0.000000
vn -0.0000 1.0000 -0.0000
vn 0.6414 -0.4210 -0.6414
vn 0.3471 -0.4210 -0.8380
vn 0.8380 -0.4210 -0.3471
vn 0.9071 -0.4210 -0.0000
vn 0.8380 -0.4210 0.3471
vn 0.6414 -0.4210 0.6414
vn 0.3471 -0.4210 0.8380
vn -0.0000 -0.4210 0.9071
vn -0.3471 -0.4210 0.8380
vn -0.6414 -0.4210 0.6414
vn -0.8380 -0.4210 0.3471
vn -0.9071 -0.4210 -0.0000
vn -0.8380 -0.4210 -0.3471
vn -0.6414 -0.4210 -0.6414
vn -0.3471 -0.4210 -0.8380
vn -0.0000 -0.4210 -0.9071
vt 0.250000 0.250000
vt 0.419706 0.419706
vt 0.341844 0.471731
vt 0.471731 0.341844
vt 0.490000 0.250000
vt 0.471731 0.158156
vt 0.419706 0.080294
vt 0.341844 0.028269
vt 0.250000 0.010000
vt 0.158156 0.028269
vt 0.080294 0.080294
vt 0.028269 0.158156
vt 0.010000 0.250000
vt 0.028269 0.341844
vt 0.080294 0.419706
vt 0.158156 0.471731
vt 0.250000 0.490000
vt 0.750000 0.490000
vt 0.750000 0.010000
vt 0.658156 0.028269
vt 0.658156 0.471731
vt 0.841844 0.471731
vt 0.841844 0.028269
vt 0.580294 0.080294
vt 0.580294 0.419706
vt 0.528269 0.158156
vt 0.528269 0.341844
vt 0.510000 0.250000
vt 0.919706 0.419706
vt 0.919706 0.080294
vt 0.971731 0.341844
vt 0.971731 0.158156
vt 0.990000 0.250000
s 1
f 99/118/79 85/119/80 84/120/81
f 99/118/79 86/121/82 85/119/80
f 99/118/79 87/122/83 86/121/82
f 99/118/79 88/123/84 87/122/83
f 99/118/79 89/124/85 88/123/84
f 99/118/79 90/125/86 89/124/85
f 99/118/79 91/126/87 90/125/86
f 99/118/79 92/127/88 91/126/87
f 99/118/79 93/128/89 92/127/88
f 99/118/79 94/129/90 93/128/89
f 99/118/79 95/130/91 94/129/90
f 99/118/79 96/131/92 95/130/91
f 99/118/79 97/132/93 96/131/92
f 99/118/79 98/133/94 97/132/93
f 99/118/79 83/134/95 98/133/94
f 99/118/79 84/120/81 83/134/95
f 83/135/95 91/136/87 92/137/88 98/138/94
f 91/136/87 83/135/95 84/139/81 90/140/86
f 98/138/94 92/137/88 93/141/89 97/142/93
f 97/142/93 93/141/89 94/143/90 96/144/92
f 96/144/92 94/143/90 95/145/91
f 90/140/86 84/139/81 85/146/80 89/147/85
f 89/147/85 85/146/80 86/148/82 88/149/84
f 88/149/84 86/148/82 87/150/83
